<?xml version="1.0" standalone="no"?>
<!DOCTYPE svg PUBLIC "-//W3C//DTD SVG 20010904//EN"
 "http://www.w3.org/TR/2001/REC-SVG-20010904/DTD/svg10.dtd">
<svg version="1.0" xmlns="http://www.w3.org/2000/svg"
 width="700.000000pt" height="700.000000pt" viewBox="0 0 700.000000 700.000000"
 preserveAspectRatio="xMidYMid meet">
<metadata>
Created by potrace 1.14, written by Peter Selinger 2001-2017
</metadata>
<g transform="translate(0.000000,700.000000) scale(0.100000,-0.100000)"
fill="#000000" stroke="none">
<path d="M3038 6995 c-2 -2 -66 -6 -143 -9 -77 -3 -165 -8 -195 -10 -30 -3
-94 -7 -141 -11 -47 -3 -96 -7 -110 -9 -13 -3 -55 -7 -93 -11 -38 -4 -79 -8
-90 -10 -12 -2 -57 -9 -101 -15 -937 -132 -1505 -481 -1810 -1115 -121 -252
-210 -549 -261 -875 -3 -19 -7 -42 -9 -50 -2 -8 -7 -42 -10 -75 -4 -33 -8 -67
-10 -75 -2 -8 -7 -46 -11 -85 -3 -38 -8 -78 -10 -88 -1 -10 -6 -61 -9 -115 -4
-53 -8 -113 -10 -132 -27 -270 -26 -1335 0 -1624 2 -23 6 -77 10 -121 11 -151
17 -206 40 -365 2 -14 7 -47 11 -75 3 -27 8 -59 10 -70 3 -11 7 -36 10 -55 3
-19 7 -42 9 -50 2 -8 7 -31 10 -50 18 -105 102 -412 134 -485 5 -11 28 -67 52
-125 185 -441 505 -768 948 -965 170 -76 467 -169 636 -200 119 -21 268 -45
310 -50 28 -3 57 -8 65 -10 8 -2 47 -7 85 -11 39 -3 79 -8 89 -10 11 -2 67 -6
125 -9 58 -4 117 -8 130 -10 158 -26 1349 -26 1611 0 19 2 73 6 120 10 47 3
103 8 125 10 22 2 65 7 95 10 30 3 64 7 76 9 12 2 45 7 75 11 30 3 61 8 69 10
8 2 38 6 65 10 28 3 100 17 162 30 61 14 122 26 135 29 124 22 408 121 563
196 109 53 292 161 305 179 3 4 13 12 22 17 29 16 127 105 204 184 290 300
470 713 579 1330 1 8 5 36 9 61 4 25 9 57 11 70 3 23 20 161 30 244 2 22 7 78
10 125 4 47 8 105 10 130 27 327 27 1279 0 1620 -2 25 -6 81 -10 125 -3 44 -8
98 -10 120 -3 22 -7 65 -10 95 -3 29 -7 68 -10 85 -2 16 -7 48 -10 70 -64 471
-190 868 -366 1160 -258 428 -657 704 -1240 859 -95 25 -326 74 -384 81 -30 4
-92 14 -129 21 -10 2 -44 6 -75 9 -31 3 -67 8 -81 10 -23 4 -54 7 -210 20 -30
3 -98 7 -150 11 -52 3 -117 8 -145 10 -56 5 -1102 14 -1107 9z m2322 -3495 l0
-1859 -327 2 -328 2 -1 1523 c0 837 -4 1525 -8 1529 -4 4 -692 8 -1529 8
l-1522 0 -3 328 -2 327 1860 0 1860 0 0 -1860z m-2270 756 c432 -50 831 -331
1037 -731 29 -58 79 -182 88 -221 2 -10 9 -37 15 -59 92 -343 16 -766 -188
-1060 -66 -94 -87 -120 -152 -186 -372 -377 -890 -507 -1377 -344 -644 215
-1018 852 -899 1530 25 142 113 351 202 481 26 37 52 73 58 80 6 7 33 38 61
71 156 185 431 352 674 410 153 36 325 46 481 29z"/>
<path d="M2815 3600 c-145 -25 -267 -90 -375 -199 -84 -85 -134 -171 -171
-291 -32 -106 -32 -265 0 -370 62 -202 189 -350 375 -435 97 -44 184 -62 291
-60 113 3 197 24 305 77 171 83 316 274 355 465 22 108 8 287 -31 383 -48 121
-159 258 -264 327 -51 33 -152 79 -190 87 -14 2 -43 8 -65 14 -52 12 -166 12
-230 2z"/>
</g>
</svg>
